<?xml version="1.0" standalone="no"?>
<!DOCTYPE svg PUBLIC "-//W3C//DTD SVG 20010904//EN"
 "http://www.w3.org/TR/2001/REC-SVG-20010904/DTD/svg10.dtd">
<svg version="1.0" xmlns="http://www.w3.org/2000/svg"
 width="666.000000pt" height="522.000000pt" viewBox="0 0 666.000000 522.000000"
 preserveAspectRatio="xMidYMid meet">

<g transform="translate(0.000000,522.000000) scale(0.100000,-0.100000)"
fill="#000000" stroke="none">
<path d="M0 2610 l0 -2610 3330 0 3330 0 0 2610 0 2610 -3330 0 -3330 0 0
-2610z m1060 913 c0 -75 25 -303 45 -418 34 -192 88 -362 162 -510 56 -111 91
-163 163 -240 188 -204 296 -271 495 -308 l70 -13 -60 -15 c-89 -21 -282 -17
-370 8 -189 54 -269 98 -399 223 -180 172 -317 399 -407 672 -59 180 -90 353
-102 576 l-5 82 204 0 204 0 0 -57z m3480 -328 c33 -224 96 -440 177 -600 55
-110 88 -157 161 -238 176 -192 294 -270 450 -299 31 -5 71 -13 87 -17 29 -7
27 -8 -25 -21 -187 -44 -389 -13 -599 93 -83 41 -237 187 -332 314 -39 51 -72
93 -74 93 -2 0 18 -53 45 -117 26 -65 58 -150 70 -189 l21 -71 -69 -92 c-78
-103 -163 -261 -216 -397 -51 -132 -61 -125 -69 46 -18 387 -118 748 -271 979
-55 83 -252 274 -329 320 -31 18 -82 44 -114 56 -66 27 -201 48 -241 39 -21
-5 -24 -4 -16 6 27 28 157 53 279 53 181 0 326 -43 478 -142 84 -55 222 -192
304 -303 32 -42 61 -77 65 -78 4 0 -12 39 -34 86 -22 48 -55 132 -74 187 l-34
99 41 47 c71 79 167 233 224 357 30 65 55 126 56 134 1 8 7 -48 15 -125 7 -77
18 -176 24 -220z m-1625 238 c28 -76 102 -220 144 -281 21 -32 94 -111 162
-177 165 -160 264 -213 454 -241 l50 -7 -45 -14 c-77 -24 -253 -28 -350 -8
-186 38 -336 114 -448 227 -56 55 -63 67 -58 93 3 17 17 84 31 150 13 66 28
162 31 213 4 50 8 92 9 92 1 0 10 -21 20 -47z m-978 -968 c165 -39 348 -144
457 -262 l48 -52 -22 -92 c-26 -111 -50 -282 -50 -361 0 -99 -10 -98 -46 3
-41 114 -102 243 -145 307 -42 61 -189 213 -259 266 -126 97 -257 146 -389
146 -74 0 -70 10 14 34 74 21 89 23 215 24 70 1 139 -4 177 -13z m3429 4 c32
-6 104 -28 159 -50 279 -109 536 -409 679 -792 l25 -67 -205 2 -206 3 -34 103
c-69 211 -144 343 -268 470 -190 196 -322 268 -516 281 l-95 6 70 22 c39 12
81 24 95 26 53 9 239 7 296 -4z"/>
</g>
</svg>
